# Blender v2.67 (sub 0) OBJ File: 'pelotas.blend'
# www.blender.org
mtllib pelota.mtl
o Sphere
v 6.850208 18.981621 0.899828
v 4.851964 19.741486 1.402272
v 0.568579 20.020596 2.227278
v -1.551957 19.529118 2.518135
v -3.549195 18.636757 2.711890
v -5.346387 17.377804 2.801097
v -6.874465 15.800642 2.782329
v -8.074707 13.965879 2.656307
v -8.900989 11.944025 2.427874
v -9.321555 9.812777 2.105808
v -9.320245 7.654039 1.702485
v -8.897108 5.550769 1.233406
v -8.068405 3.583796 0.716597
v -6.865983 1.828711 0.171918
v -5.336050 0.352957 -0.379698
v 7.351797 18.669825 -1.204380
v 5.835865 19.129875 -2.725277
v 4.159320 19.204384 -4.141773
v 2.386590 18.890488 -5.399435
v 0.585797 18.200253 -6.449931
v -1.173851 17.160198 -7.252889
v -2.824734 15.810299 -7.777456
v -4.303410 14.202429 -8.003469
v -5.553053 12.398376 -7.922246
v -6.525642 10.467468 -7.536906
v -7.183800 8.483911 -6.862258
v -7.502233 6.523932 -5.924228
v -7.468706 4.662849 -4.758864
v -7.084505 2.972186 -3.410950
v -6.364395 1.516914 -1.932287
v 9.016088 17.362093 -1.748867
v 9.100489 16.564667 -3.793325
v 8.898817 15.480280 -5.692338
v 8.418825 14.150606 -7.372930
v 7.678957 12.626739 -8.770515
v 6.707644 10.967244 -9.831385
v 5.542216 9.235893 -10.514771
v 4.227459 7.499223 -10.794414
v 2.813898 5.823969 -10.659562
v 1.355854 4.274513 -10.115401
v -0.090641 2.910398 -9.182842
v -1.469997 1.784049 -7.897723
v -2.729208 0.938747 -6.309429
v -3.819882 0.406980 -4.478998
v -4.700104 0.209184 -2.476773
v 10.178792 16.366158 -0.189145
v 11.381212 14.611071 -0.733824
v 12.209912 12.644098 -1.250633
v 12.633050 10.540831 -1.719711
v 12.634360 8.382092 -2.123034
v 12.213794 6.250846 -2.445100
v 11.387513 4.228992 -2.673533
v 10.187273 2.394230 -2.799556
v 8.659196 0.817067 -2.818324
v 6.862004 -0.441886 -2.729116
v 4.864763 -1.334249 -2.535361
v 2.744228 -1.825727 -2.244504
v 0.581887 -1.897435 -1.867724
v -1.539160 -1.546617 -1.419498
v -3.537402 -0.786751 -0.917053
v 9.677203 16.677952 1.915062
v 10.397312 15.222680 3.393725
v 10.781512 13.532017 4.741637
v 10.815041 11.670937 5.907001
v 10.496608 9.710957 6.845031
v 9.838449 7.727402 7.519679
v 8.865861 5.796495 7.905019
v 7.616219 3.992443 7.986243
v 6.137543 2.384570 7.760230
v 4.486660 1.034670 7.235664
v 2.727010 -0.005383 6.432704
v 0.926218 -0.695620 5.382208
v -0.846514 -1.009516 4.124546
v -2.523060 -0.935007 2.708049
v -4.038990 -0.474956 1.187152
v 8.648856 17.841911 0.362475
v 8.012911 17.985685 2.459549
v 7.132689 17.787888 4.461773
v 6.042015 17.256119 6.292202
v 4.782805 16.410820 7.880496
v 3.403449 15.284470 9.165615
v 1.956955 13.920356 10.098173
v 0.498912 12.370901 10.642334
v -0.914649 10.695648 10.777184
v -2.229408 8.958977 10.497546
v -3.394836 7.227625 9.814158
v -4.366148 5.568129 8.753288
v -5.106018 4.044263 7.355703
v -5.586010 2.714586 5.675111
v -5.787682 1.630199 3.776097
v -5.703280 0.832776 1.731638
v 2.730918 20.092302 1.850498
vt 0.563714 0.253274
vt 0.569951 0.249594
vt 0.563690 0.260970
vt 0.451323 0.187932
vt 0.443601 0.188334
vt 0.451204 0.149243
vt 0.482279 0.186431
vt 0.474741 0.187576
vt 0.482168 0.149987
vt 0.511745 0.183487
vt 0.504679 0.185332
vt 0.511644 0.150689
vt 0.482279 0.220375
vt 0.476691 0.217939
vt 0.482179 0.187576
vt 0.489937 0.217903
vt 0.483616 0.220375
vt 0.489851 0.190010
vt 0.518367 0.185332
vt 0.511845 0.183529
vt 0.518255 0.148888
vt 0.536356 0.182326
vt 0.531023 0.185332
vt 0.536288 0.160411
vt 0.497252 0.187576
vt 0.490049 0.186476
vt 0.497134 0.148888
vt 0.537710 0.249348
vt 0.543341 0.245956
vt 0.537664 0.264444
vt 0.466894 0.188334
vt 0.459285 0.187979
vt 0.466773 0.148888
vt 0.474576 0.264420
vt 0.468030 0.260700
vt 0.468054 0.253004
vt 0.161897 0.822118
vt 0.155112 0.821424
vt 0.161912 0.806623
vt 0.217203 0.826958
vt 0.213031 0.824323
vt 0.213035 0.798324
vt 0.252015 0.790319
vt 0.255774 0.788399
vt 0.252020 0.816319
vt 0.265912 0.822369
vt 0.262730 0.820269
vt 0.262735 0.789697
vt 0.243193 0.738828
vt 0.247855 0.736345
vt 0.243196 0.759256
vt 0.228932 0.760302
vt 0.222440 0.762345
vt 0.228949 0.742024
vt 0.229842 0.817347
vt 0.235229 0.814399
vt 0.229845 0.831418
vt 0.161894 0.783785
vt 0.154921 0.785200
vt 0.161912 0.765150
vt 0.258074 0.833042
vt 0.252015 0.829473
vt 0.252017 0.822299
vt 0.253738 0.777629
vt 0.259641 0.774327
vt 0.253739 0.784802
vt 0.176331 0.803477
vt 0.169145 0.804207
vt 0.176348 0.785200
vt 0.253497 0.762345
vt 0.247859 0.758961
vt 0.247861 0.744890
vt 0.197775 0.813336
vt 0.190653 0.813355
vt 0.197791 0.796119
vt 0.203322 0.821077
vt 0.198321 0.818009
vt 0.198324 0.797581
vt 0.564699 0.486459
vt 0.574595 0.481024
vt 0.564697 0.498172
vt 0.485589 0.486634
vt 0.478620 0.488405
vt 0.478637 0.469782
vt 0.557562 0.471187
vt 0.562946 0.474593
vt 0.562948 0.488656
vt 0.538159 0.482771
vt 0.531669 0.485874
vt 0.531686 0.467608
vt 0.548235 0.465619
vt 0.552895 0.468706
vt 0.552899 0.489122
vt 0.571930 0.524255
vt 0.568749 0.525552
vt 0.568755 0.491603
vt 0.557466 0.491603
vt 0.561222 0.494253
vt 0.561227 0.520237
vt 0.552405 0.463628
vt 0.548235 0.465565
vt 0.548240 0.435011
vt 0.478391 0.525301
vt 0.471612 0.522887
vt 0.471626 0.507401
vt 0.548232 0.463063
vt 0.543233 0.465565
vt 0.548235 0.442648
vt 0.492737 0.516543
vt 0.485620 0.515502
vt 0.485636 0.498296
vt 0.479798 0.553727
vt 0.480890 0.553151
vt 0.479798 0.556451
vt 0.471161 0.507029
vt 0.463980 0.507401
vt 0.463997 0.489135
vt 0.520538 0.530138
vt 0.526439 0.533732
vt 0.526440 0.540901
vt 0.807677 0.786103
vt 0.802078 0.789109
vt 0.802164 0.760890
vt 0.773316 0.763161
vt 0.765682 0.762049
vt 0.765569 0.725179
vt 0.815371 0.829860
vt 0.809129 0.833291
vt 0.815417 0.814588
vt 0.742185 0.763928
vt 0.734370 0.763569
vt 0.734250 0.724428
vt 0.848089 0.773837
vt 0.854375 0.777600
vt 0.854351 0.785385
vt 0.753035 0.752402
vt 0.756669 0.750336
vt 0.753048 0.756674
vt 0.757822 0.763521
vt 0.750126 0.763928
vt 0.750003 0.724020
vt 0.827413 0.822224
vt 0.833088 0.825691
vt 0.833041 0.840963
vt 0.788118 0.762003
vt 0.780837 0.763161
vt 0.780717 0.724020
vt 0.820278 0.789109
vt 0.814864 0.786102
vt 0.814796 0.763930
vt 0.802078 0.795896
vt 0.795492 0.797760
vt 0.795379 0.760890
vt 0.788118 0.796343
vt 0.781708 0.793881
vt 0.781621 0.765662
vt 0.780717 0.793844
vt 0.775078 0.796343
vt 0.774977 0.763161
vt 0.795379 0.797760
vt 0.788219 0.795938
vt 0.788118 0.762756
vt 0.576158 0.757058
vt 0.571655 0.760029
vt 0.576151 0.713793
vt 0.565042 0.796899
vt 0.570361 0.799616
vt 0.570355 0.836410
vt 0.547780 0.836435
vt 0.541876 0.840163
vt 0.547773 0.799641
vt 0.412209 0.820252
vt 0.421811 0.819270
vt 0.421832 0.841197
vt 0.541313 0.792556
vt 0.534235 0.796898
vt 0.541308 0.763648
vt 0.491596 0.808201
vt 0.501675 0.808227
vt 0.501698 0.832592
vt 0.491137 0.849785
vt 0.490024 0.850453
vt 0.491136 0.847006
vt 0.411639 0.792371
vt 0.421808 0.793405
vt 0.421832 0.819270
vt 0.499075 0.849546
vt 0.500241 0.850198
vt 0.500241 0.851614
vt 0.449069 0.824005
vt 0.441945 0.828202
vt 0.449068 0.815570
vt 0.432521 0.763998
vt 0.442389 0.766000
vt 0.442414 0.792371
vt 0.503599 0.847528
vt 0.504662 0.848111
vt 0.504662 0.850889
vt 0.519663 0.796899
vt 0.528850 0.799791
vt 0.528875 0.825656
vt 0.547922 0.760105
vt 0.554519 0.763618
vt 0.554515 0.792526
vt 0.525268 0.256895
vt 0.519120 0.253467
vt 0.519166 0.238371
vt 0.444680 0.264389
vt 0.451323 0.268146
vt 0.444674 0.272021
vt 0.523882 0.185332
vt 0.518367 0.182326
vt 0.523968 0.157439
vt 0.518370 0.156616
vt 0.518367 0.148888
vt 0.525042 0.152782
vt 0.235925 0.735524
vt 0.229678 0.731906
vt 0.235926 0.728350
vt 0.183514 0.833783
vt 0.183509 0.840911
vt 0.177278 0.837357
vt 0.395396 0.480254
vt 0.405599 0.474449
vt 0.405597 0.486163
vt 0.505801 0.479150
vt 0.515985 0.473314
vt 0.515976 0.484954
vt 0.777488 0.747650
vt 0.773800 0.749735
vt 0.773796 0.745498
vt 0.738056 0.809568
vt 0.741763 0.811730
vt 0.738058 0.813859
vt 0.495338 0.852119
vt 0.495337 0.850711
vt 0.496568 0.851417
vt 0.491259 0.829553
vt 0.483914 0.833808
vt 0.483913 0.825373
vt 0.196685 0.552973
vt 0.203783 0.548650
vt 0.196684 0.561597
vt 0.138331 0.509516
vt 0.149570 0.510098
vt 0.138358 0.538104
vt 0.147451 0.523378
vt 0.146192 0.522715
vt 0.146192 0.519576
vt 0.180655 0.564417
vt 0.173158 0.560121
vt 0.180648 0.555848
vt 0.172121 0.526596
vt 0.183260 0.524966
vt 0.172146 0.553525
vt 0.253014 0.555187
vt 0.245190 0.551271
vt 0.245185 0.519319
vt 0.150276 0.543026
vt 0.160886 0.539246
vt 0.150299 0.567261
vt 0.259547 0.562340
vt 0.253021 0.559308
vt 0.259540 0.514520
vt 0.281595 0.430097
vt 0.287475 0.425949
vt 0.281589 0.470765
vt 0.292461 0.473769
vt 0.287483 0.471739
vt 0.292453 0.420634
vt 0.266086 0.519352
vt 0.273379 0.514520
vt 0.266080 0.551305
vt 0.224822 0.514520
vt 0.234978 0.519375
vt 0.224848 0.543108
vt 0.234706 0.437038
vt 0.227196 0.432764
vt 0.234705 0.428415
vt 0.149201 0.519873
vt 0.150403 0.519112
vt 0.149200 0.523012
vt 0.115938 0.478156
vt 0.126845 0.480928
vt 0.115965 0.507304
vt 0.138665 0.557065
vt 0.131380 0.553064
vt 0.131378 0.544441
vt 0.569904 0.264689
vt 0.443480 0.148888
vt 0.474622 0.148888
vt 0.504568 0.148888
vt 0.476606 0.190046
vt 0.483516 0.187576
vt 0.511745 0.150731
vt 0.530937 0.157439
vt 0.489937 0.150032
vt 0.543274 0.267871
vt 0.459166 0.149290
vt 0.474622 0.249325
vt 0.155128 0.804207
vt 0.217208 0.796386
vt 0.255779 0.818971
vt 0.265918 0.788399
vt 0.247859 0.762345
vt 0.222456 0.745129
vt 0.235232 0.834827
vt 0.154938 0.766922
vt 0.258076 0.818971
vt 0.259644 0.788399
vt 0.169163 0.785572
vt 0.253500 0.741917
vt 0.190670 0.795077
vt 0.203326 0.795077
vt 0.574591 0.504002
vt 0.485606 0.468368
vt 0.557565 0.491603
vt 0.538175 0.465565
vt 0.548239 0.491603
vt 0.571935 0.493701
vt 0.557471 0.522156
vt 0.552409 0.437644
vt 0.478407 0.508095
vt 0.543237 0.439581
vt 0.492754 0.498277
vt 0.480889 0.557107
vt 0.471178 0.488405
vt 0.520540 0.544201
vt 0.807745 0.763931
vt 0.773196 0.724020
vt 0.809197 0.811120
vt 0.742063 0.724020
vt 0.848042 0.789109
vt 0.756695 0.758717
vt 0.757702 0.724380
vt 0.827345 0.844395
vt 0.788004 0.725133
vt 0.820191 0.760890
vt 0.801976 0.762714
vt 0.788016 0.763161
vt 0.780630 0.765625
vt 0.795266 0.760890
vt 0.571647 0.711956
vt 0.565035 0.840163
vt 0.541869 0.796899
vt 0.412232 0.844616
vt 0.534229 0.760105
vt 0.491620 0.834066
vt 0.490023 0.846419
vt 0.411663 0.818743
vt 0.499075 0.852324
vt 0.441942 0.811657
vt 0.432546 0.789863
vt 0.503598 0.851562
vt 0.519686 0.821263
vt 0.547916 0.796898
vt 0.525336 0.234980
vt 0.518434 0.160411
vt 0.203781 0.565566
vt 0.149598 0.539246
vt 0.147450 0.518821
vt 0.183286 0.553554
vt 0.253008 0.514520
vt 0.160912 0.566176
vt 0.253014 0.518641
vt 0.287467 0.473769
vt 0.287475 0.423919
vt 0.273372 0.555187
vt 0.235003 0.546304
vt 0.150402 0.523670
vt 0.126872 0.509516
vt 0.138662 0.540149
vn -0.780145 -0.625111 0.024018
vn -0.881344 -0.466933 0.071841
vn -0.728263 -0.657369 -0.193548
vn -0.865902 0.439711 0.238350
vn -0.761498 0.598346 0.249123
vn -0.640553 0.299631 -0.706992
vn -0.939055 0.265023 0.218909
vn -0.726005 0.132603 -0.674734
vn -0.978179 0.080416 0.191504
vn -0.785211 -0.039491 -0.617908
vn -0.302255 0.925687 0.227363
vn -0.118412 0.972015 0.202857
vn -0.109317 0.805750 -0.582049
vn -0.981689 -0.107547 0.157048
vn -0.815912 -0.210608 -0.538408
vn -0.474624 0.845790 0.243568
vn -0.261605 0.713370 -0.650105
vn -0.949187 -0.292245 0.116672
vn -0.816736 -0.374554 -0.438826
vn -0.629505 0.735343 0.250893
vn -0.404157 0.595264 -0.694449
vn -0.787317 -0.525376 -0.322550
vn -0.531999 0.455672 -0.713645
vn 0.257424 0.957183 0.132267
vn 0.435896 0.895596 0.088565
vn 0.487777 0.863369 -0.129032
vn -0.144993 -0.542558 -0.827387
vn 0.047334 0.868954 -0.492599
vn 0.597400 0.436720 -0.672567
vn -0.265847 -0.642842 -0.718375
vn 0.530900 0.302683 -0.791498
vn -0.377331 -0.719810 -0.582598
vn 0.343547 0.007721 -0.939085
vn -0.475356 -0.770501 -0.424604
vn 0.229499 -0.142644 -0.962767
vn 0.351451 0.898740 -0.262123
vn 0.659902 0.728111 -0.185339
vn -0.556139 -0.792596 -0.249855
vn 0.107150 -0.287881 -0.951628
vn 0.202795 0.900449 -0.384716
vn 0.663411 0.653615 -0.364177
vn -0.019166 -0.422803 -0.906003
vn 0.642201 0.555193 -0.528489
vn -0.435896 -0.895596 -0.088565
vn 0.761498 -0.598346 -0.249123
vn 0.881344 0.466933 -0.071841
vn 0.629505 -0.735343 -0.250893
vn 0.949187 0.292245 -0.116672
vn 0.474624 -0.845790 -0.243568
vn 0.981689 0.107547 -0.157048
vn 0.302255 -0.925687 -0.227363
vn 0.445235 0.157933 -0.881344
vn 0.978179 -0.080416 -0.191504
vn -0.070376 -0.982757 -0.170782
vn 0.939055 -0.265023 -0.218909
vn -0.257424 -0.957183 -0.132267
vn 0.865902 -0.439711 -0.238350
vn 0.780145 0.625111 -0.024018
vn 0.118412 -0.972015 -0.202857
vn -0.047334 -0.868954 0.492599
vn 0.726005 -0.132603 0.674734
vn -0.351451 -0.898740 0.262123
vn 0.640553 -0.299631 0.706992
vn 0.728263 0.657369 0.193548
vn -0.487777 -0.863369 0.129032
vn 0.531999 -0.455672 0.713645
vn 0.787317 0.525376 0.322550
vn 0.404157 -0.595264 0.694449
vn 0.816736 0.374554 0.438826
vn 0.261605 -0.713370 0.650105
vn 0.815912 0.210608 0.538408
vn 0.109317 -0.805750 0.582049
vn 0.785211 0.039491 0.617908
vn -0.530900 -0.302683 0.791498
vn 0.265847 0.642842 0.718375
vn -0.597400 -0.436720 0.672567
vn 0.144993 0.542558 0.827387
vn -0.202795 -0.900449 0.384716
vn -0.642201 -0.555193 0.528489
vn 0.019166 0.422803 0.906003
vn -0.663411 -0.653615 0.364177
vn -0.107150 0.287881 0.951628
vn 0.556139 0.792596 0.249855
vn -0.659902 -0.728111 0.185339
vn -0.229499 0.142644 0.962767
vn 0.475356 0.770501 0.424635
vn -0.343547 -0.007721 0.939085
vn 0.377331 0.719810 0.582598
vn 0.070376 0.982757 0.170782
vn -0.624165 -0.780572 -0.033113
vn 0.624165 0.780572 0.033113
vn -0.445235 -0.157933 0.881344
usemtl None
s 1
f 14/1/1 13/2/2 30/3/3
f 8/4/4 7/5/5 24/6/6
f 9/7/7 8/8/4 25/9/8
f 10/10/9 9/11/7 26/12/10
f 4/13/11 3/14/12 20/15/13
f 11/16/14 10/17/9 27/18/15
f 5/19/16 4/20/11 21/21/17
f 12/22/18 11/23/14 28/24/19
f 6/25/20 5/26/16 22/27/21
f 13/28/2 12/29/18 29/30/22
f 7/31/5 6/32/20 23/33/23
f 2/34/24 1/35/25 16/36/26
f 26/37/10 25/38/8 41/39/27
f 20/40/13 19/41/28 34/42/29
f 27/43/15 26/44/10 42/45/30
f 21/46/17 20/47/13 35/48/31
f 28/49/19 27/50/15 43/51/32
f 22/52/21 21/53/17 37/54/33
f 29/55/22 28/56/19 44/57/34
f 23/58/23 22/59/21 38/60/35
f 17/61/36 16/62/26 31/63/37
f 30/64/3 29/65/22 45/66/38
f 24/67/6 23/68/23 39/69/39
f 18/70/40 17/71/36 32/72/41
f 25/73/8 24/74/6 40/75/42
f 19/76/28 18/77/40 33/78/43
f 45/79/38 44/80/34 60/81/44
f 39/82/39 38/83/35 53/84/45
f 33/85/43 32/86/41 47/87/46
f 40/88/42 39/89/39 54/90/47
f 34/91/29 33/92/43 48/93/48
f 41/94/27 40/95/42 55/96/49
f 35/97/31 34/98/29 49/99/50
f 42/100/30 41/101/27 56/102/51
f 36/103/52 35/104/31 50/105/53
f 43/106/32 42/107/30 58/108/54
f 37/109/33 36/110/52 51/111/55
f 44/112/34 43/113/32 59/114/56
f 38/115/35 37/116/33 52/117/57
f 32/118/41 31/119/37 46/120/58
f 58/121/54 57/122/59 72/123/60
f 52/124/57 51/125/55 66/126/61
f 59/127/56 58/128/54 74/129/62
f 53/130/45 52/131/57 67/132/63
f 47/133/46 46/134/58 61/135/64
f 60/136/44 59/137/56 75/138/65
f 54/139/47 53/140/45 68/141/66
f 48/142/48 47/143/46 62/144/67
f 55/145/49 54/146/47 69/147/68
f 49/148/50 48/149/48 63/150/69
f 56/151/51 55/152/49 70/153/70
f 50/154/53 49/155/50 64/156/71
f 57/157/59 56/158/51 71/159/72
f 51/160/55 50/161/53 65/162/73
f 71/163/72 70/164/70 87/165/74
f 65/166/73 64/167/71 80/168/75
f 72/169/60 71/170/72 88/171/76
f 66/172/61 65/173/73 81/174/77
f 73/175/78 72/176/60 89/177/79
f 67/178/63 66/179/61 82/180/80
f 74/181/62 73/182/78 90/183/81
f 68/184/66 67/185/63 83/186/82
f 62/187/67 61/188/64 77/189/83
f 75/190/65 74/191/62 91/192/84
f 69/193/68 68/194/66 84/195/85
f 63/196/69 62/197/67 78/198/86
f 70/199/70 69/200/68 85/201/87
f 64/202/71 63/203/69 79/204/88
f 92/205/89 2/206/24 17/207/36
f 15/208/90 14/209/1 30/210/3
f 3/211/12 92/212/89 19/213/28
f 1/214/25 76/215/91 16/216/26
f 16/217/26 76/218/91 31/219/37
f 15/220/90 30/221/3 45/222/38
f 15/223/90 45/224/38 60/225/44
f 31/226/37 76/227/91 46/228/58
f 46/229/58 76/230/91 61/231/64
f 15/232/90 60/233/44 75/234/65
f 61/235/64 76/236/91 77/237/83
f 15/238/90 75/239/65 91/240/84
f 91/241/84 90/242/81 14/243/1
f 85/244/87 84/245/85 8/246/4
f 79/247/88 78/248/86 2/249/24
f 15/250/90 91/251/84 14/252/1
f 86/253/92 85/254/87 9/255/7
f 80/256/75 79/257/88 92/258/89
f 87/259/74 86/260/92 10/261/9
f 81/262/77 80/263/75 4/264/11
f 88/265/76 87/266/74 11/267/14
f 82/268/80 81/269/77 5/270/16
f 89/271/79 88/272/76 12/273/18
f 83/274/82 82/275/80 6/276/20
f 77/277/83 76/278/91 1/279/25
f 90/280/81 89/281/79 13/282/2
f 84/283/85 83/284/82 7/285/5
f 78/286/86 77/287/83 1/288/25
f 13/2/2 29/289/22 30/3/3
f 7/5/5 23/290/23 24/6/6
f 8/8/4 24/291/6 25/9/8
f 9/11/7 25/292/8 26/12/10
f 3/14/12 19/293/28 20/15/13
f 10/17/9 26/294/10 27/18/15
f 4/20/11 20/295/13 21/21/17
f 11/23/14 27/296/15 28/24/19
f 5/26/16 21/297/17 22/27/21
f 12/29/18 28/298/19 29/30/22
f 6/32/20 22/299/21 23/33/23
f 17/300/36 2/34/24 16/36/26
f 25/38/8 40/301/42 41/39/27
f 35/302/31 20/40/13 34/42/29
f 26/44/10 41/303/27 42/45/30
f 36/304/52 21/46/17 35/48/31
f 27/50/15 42/305/30 43/51/32
f 21/53/17 36/306/52 37/54/33
f 28/56/19 43/307/32 44/57/34
f 22/59/21 37/308/33 38/60/35
f 32/309/41 17/61/36 31/63/37
f 29/65/22 44/310/34 45/66/38
f 23/68/23 38/311/35 39/69/39
f 33/312/43 18/70/40 32/72/41
f 24/74/6 39/313/39 40/75/42
f 34/314/29 19/76/28 33/78/43
f 44/80/34 59/315/56 60/81/44
f 54/316/47 39/82/39 53/84/45
f 48/317/48 33/85/43 47/87/46
f 55/318/49 40/88/42 54/90/47
f 49/319/50 34/91/29 48/93/48
f 56/320/51 41/94/27 55/96/49
f 50/321/53 35/97/31 49/99/50
f 57/322/59 42/100/30 56/102/51
f 51/323/55 36/103/52 50/105/53
f 42/107/30 57/324/59 58/108/54
f 52/325/57 37/109/33 51/111/55
f 43/113/32 58/326/54 59/114/56
f 53/327/45 38/115/35 52/117/57
f 47/328/46 32/118/41 46/120/58
f 73/329/78 58/121/54 72/123/60
f 67/330/63 52/124/57 66/126/61
f 58/128/54 73/331/78 74/129/62
f 68/332/66 53/130/45 67/132/63
f 62/333/67 47/133/46 61/135/64
f 59/137/56 74/334/62 75/138/65
f 69/335/68 54/139/47 68/141/66
f 63/336/69 48/142/48 62/144/67
f 70/337/70 55/145/49 69/147/68
f 64/338/71 49/148/50 63/150/69
f 71/339/72 56/151/51 70/153/70
f 65/340/73 50/154/53 64/156/71
f 72/341/60 57/157/59 71/159/72
f 66/342/61 51/160/55 65/162/73
f 70/164/70 86/343/92 87/165/74
f 81/344/77 65/166/73 80/168/75
f 71/170/72 87/345/74 88/171/76
f 82/346/80 66/172/61 81/174/77
f 72/176/60 88/347/76 89/177/79
f 83/348/82 67/178/63 82/180/80
f 73/182/78 89/349/79 90/183/81
f 84/350/85 68/184/66 83/186/82
f 78/351/86 62/187/67 77/189/83
f 74/191/62 90/352/81 91/192/84
f 85/353/87 69/193/68 84/195/85
f 79/354/88 63/196/69 78/198/86
f 86/355/92 70/199/70 85/201/87
f 80/356/75 64/202/71 79/204/88
f 18/357/40 92/205/89 17/207/36
f 92/212/89 18/358/40 19/213/28
f 90/242/81 13/359/2 14/243/1
f 84/245/85 7/360/5 8/246/4
f 92/361/89 79/247/88 2/249/24
f 85/254/87 8/362/4 9/255/7
f 3/363/12 80/256/75 92/258/89
f 86/260/92 9/364/7 10/261/9
f 80/263/75 3/365/12 4/264/11
f 87/266/74 10/366/9 11/267/14
f 81/269/77 4/367/11 5/270/16
f 88/272/76 11/368/14 12/273/18
f 82/275/80 5/369/16 6/276/20
f 89/281/79 12/370/18 13/282/2
f 83/284/82 6/371/20 7/285/5
f 2/372/24 78/286/86 1/288/25
