# Blender v2.67 (sub 0) OBJ File: 'sombrilla.blend'
# www.blender.org
mtllib sombrilla.mtl
o Sphere
v 4.701537 17.944012 -0.013473
v 3.072340 18.131996 -0.087155
v -0.139386 17.547779 -0.229077
v -1.598490 16.798027 -0.291863
v -2.883479 15.777764 -0.345901
v -3.944970 14.526198 -0.389114
v 5.513499 17.614002 -1.392233
v 4.665060 17.484657 -2.791687
v 3.750032 17.058414 -4.086327
v 2.803577 16.351656 -5.226399
v 1.862068 15.391536 -6.168091
v 0.961688 14.214956 -6.875215
v 0.137037 12.867130 -7.320597
v 7.010715 16.963844 -1.322855
v 7.601951 16.209332 -2.655596
v 8.013733 15.206930 -3.888753
v 8.230240 13.995162 -4.974936
v 8.243148 12.620592 -5.872402
v 8.051963 11.136049 -6.546662
v 7.664032 9.598579 -6.971807
v 7.695967 16.643700 0.125284
v 8.946119 15.581344 0.185026
v 9.965162 14.295232 0.235190
v 10.713940 12.834790 0.273849
v 11.163668 11.256139 0.299515
v 11.297071 9.619949 0.311203
v 11.109020 7.989097 0.308464
v 6.884003 16.973709 1.504043
v 7.353398 16.228680 2.889558
v 7.652892 15.235019 4.161561
v 7.770976 14.030911 5.271171
v 7.703110 12.662629 6.175743
v 7.451905 11.182757 6.840517
v 7.027014 9.648165 7.239947
v 6.262744 17.441475 0.058261
v 5.386789 17.623865 1.434665
v 4.416509 17.504005 2.753467
v 3.389191 17.086504 3.963988
v 2.344313 16.387405 5.019707
v 1.322031 15.433573 5.880054
v 0.361631 14.261663 6.511965
v -0.499981 12.916716 6.891158
v 1.437760 17.998203 -0.159955
v -1.151754 0.017326 -1.423073
v 6.144946 16.849197 -1.154738
v -0.219643 -0.397081 -0.774955
v 7.077057 16.434792 -0.506621
v -0.273760 -0.392869 0.432387
v 7.022940 16.439003 0.700722
v -1.259988 0.025751 0.991611
v 6.036712 16.857622 1.259946
v -2.192100 0.440158 0.343494
v 5.104601 17.272030 0.611829
v -2.137983 0.435946 -0.863848
v 5.158718 17.267818 -0.595513
vt 0.753954 0.559564
vt 0.753788 0.428673
vt 0.762410 0.428662
vt 0.388313 0.851534
vt 0.387237 0.000036
vt 0.415282 0.000000
vt 0.804527 0.428668
vt 0.804361 0.559559
vt 0.800050 0.559554
vt 0.753623 0.559564
vt 0.745166 0.428662
vt 0.442813 0.861427
vt 0.489625 0.887086
vt 0.396060 0.891194
vt 0.770079 0.543772
vt 0.770061 0.430843
vt 0.777546 0.541592
vt 0.762594 0.541592
vt 0.762576 0.428662
vt 0.770061 0.543770
vt 0.745006 0.563871
vt 0.752475 0.559564
vt 0.745001 0.572493
vt 0.762576 0.559554
vt 0.416358 0.851498
vt 0.800216 0.428662
vt 0.745001 0.559554
vt 0.489683 0.942511
vt 0.442930 0.972277
vt 0.396118 0.946618
vt 0.777528 0.428662
vt 0.770043 0.430841
vt 0.759940 0.563880
vt 0.759935 0.572502
vt 0.752465 0.576808
vt 0.462987 0.236601
vt 0.452019 0.232920
vt 0.462979 0.187362
vt 0.442940 0.191774
vt 0.431711 0.189039
vt 0.442931 0.137062
vt 0.431703 0.195144
vt 0.420642 0.193460
vt 0.431693 0.137062
vt 0.540714 0.164714
vt 0.532599 0.159149
vt 0.532614 0.147596
vt 0.237846 0.810556
vt 0.231370 0.805966
vt 0.231337 0.779821
vt 0.181420 0.817144
vt 0.174035 0.813736
vt 0.173996 0.782993
vt 0.195873 0.779803
vt 0.187861 0.777709
vt 0.187818 0.743549
vt 0.249999 0.837438
vt 0.243539 0.834505
vt 0.243543 0.826476
vt 0.243528 0.844554
vt 0.237846 0.842299
vt 0.237854 0.826548
vt 0.173318 0.839647
vt 0.165606 0.837208
vt 0.165583 0.821443
vt 0.477843 0.576181
vt 0.465885 0.571380
vt 0.465860 0.544245
vt 0.549966 0.578750
vt 0.538977 0.575380
vt 0.538941 0.535985
vt 0.551824 0.475633
vt 0.540678 0.475647
vt 0.540621 0.430605
vt 0.438986 0.544145
vt 0.426270 0.544161
vt 0.426203 0.491197
vt 0.491716 0.538105
vt 0.477918 0.538122
vt 0.477843 0.479272
vt 0.564306 0.447499
vt 0.551837 0.441452
vt 0.551824 0.427619
vt 0.811080 0.768260
vt 0.818717 0.770351
vt 0.818627 0.837906
vt 0.812683 0.740278
vt 0.825257 0.747153
vt 0.825238 0.761418
vt 0.765834 0.826780
vt 0.778319 0.833118
vt 0.778282 0.861100
vt 0.787922 0.768260
vt 0.799838 0.773816
vt 0.799784 0.814440
vt 0.766767 0.707462
vt 0.777657 0.712023
vt 0.777588 0.763728
vt 0.778409 0.768260
vt 0.787853 0.771651
vt 0.787773 0.832449
vt 0.533381 0.873150
vt 0.495791 0.846362
vt 0.495983 0.694323
vt 0.527300 0.859250
vt 0.497276 0.845305
vt 0.497434 0.720181
vt 0.524724 0.849614
vt 0.489619 0.840344
vt 0.489809 0.690568
vt 0.457515 0.748364
vt 0.492399 0.768661
vt 0.492379 0.807391
vt 0.491110 0.714385
vt 0.535921 0.742332
vt 0.535870 0.844083
vt 0.482496 0.696931
vt 0.523931 0.724738
vt 0.523857 0.873372
vt 0.442940 0.272055
vt 0.433735 0.266938
vt 0.442935 0.239155
vt 0.504502 0.187376
vt 0.494218 0.182891
vt 0.504496 0.145502
vt 0.536632 0.220776
vt 0.527466 0.214988
vt 0.536647 0.209223
vt 0.231337 0.845116
vt 0.224606 0.849087
vt 0.224595 0.840754
vt 0.491698 0.577517
vt 0.491716 0.591873
vt 0.479667 0.584346
vt 0.778319 0.874604
vt 0.766010 0.881527
vt 0.766004 0.867404
vt 0.510830 0.752693
vt 0.510862 0.827758
vt 0.446560 0.787513
vt 0.223613 0.539923
vt 0.232636 0.547631
vt 0.223646 0.576202
vt 0.138800 0.582137
vt 0.126573 0.579188
vt 0.138837 0.550304
vt 0.245032 0.477343
vt 0.234768 0.477331
vt 0.245094 0.428569
vt 0.211772 0.531539
vt 0.200061 0.531524
vt 0.211840 0.477343
vt 0.199989 0.477327
vt 0.187282 0.477311
vt 0.200061 0.419794
vt 0.153254 0.574201
vt 0.164352 0.581386
vt 0.153266 0.586941
vt 0.261035 0.518789
vt 0.271292 0.526381
vt 0.271304 0.539120
vt 0.452013 0.191046
vt 0.431703 0.139800
vt 0.420633 0.138749
vt 0.540744 0.142052
vt 0.237807 0.779813
vt 0.181377 0.782984
vt 0.195827 0.743539
vt 0.250007 0.821687
vt 0.243539 0.821687
vt 0.173288 0.819582
vt 0.477807 0.536787
vt 0.549920 0.528611
vt 0.551757 0.422669
vt 0.438912 0.485294
vt 0.491637 0.475629
vt 0.564281 0.420364
vt 0.810985 0.839976
vt 0.812646 0.768260
vt 0.765781 0.867404
vt 0.787853 0.819964
vt 0.766686 0.768260
vt 0.778319 0.835815
vt 0.533606 0.694370
vt 0.527476 0.720219
vt 0.524925 0.690613
vt 0.457477 0.824334
vt 0.491035 0.862104
vt 0.482402 0.886107
vt 0.433731 0.244276
vt 0.494213 0.149991
vt 0.232659 0.572620
vt 0.126602 0.554177
vt 0.234820 0.435851
vt 0.200123 0.482750
vt 0.187350 0.423116
vt 0.261058 0.543778
vn 0.496991 -0.201994 -0.843918
vn 0.916423 -0.397951 0.042465
vn 0.419433 -0.195957 0.886384
vn -0.496991 0.201994 0.843919
vn 0.397696 0.917401 0.014626
vn -0.419433 0.195957 -0.886384
vn -0.916423 0.397951 -0.042466
vn -0.397697 -0.917400 -0.014625
vn 0.397698 0.917400 0.014625
vn 0.397698 0.917400 0.014626
vn 0.397697 0.917400 0.014626
vn -0.916423 0.397951 -0.042465
vn -0.397697 -0.917400 -0.014626
vn -0.397698 -0.917400 -0.014625
vn -0.555132 0.831263 -0.027772
vn -0.386944 0.921842 -0.020539
vn -0.137303 0.661458 -0.737297
vn -0.702689 0.710654 -0.033967
vn -0.241371 0.523179 -0.817316
vn -0.761498 0.647114 -0.036378
vn -0.285897 0.453810 -0.843959
vn -0.012604 0.999908 -0.004028
vn 0.180273 0.983581 0.004639
vn 0.292581 0.937925 -0.186071
vn -0.027955 0.775933 -0.630146
vn 0.633992 0.488479 -0.599475
vn 0.633168 0.326884 -0.701590
vn 0.609241 0.153783 -0.777886
vn 0.190954 0.917142 -0.349773
vn 0.499710 0.847987 -0.176489
vn 0.082766 0.862331 -0.499496
vn 0.566363 0.754112 -0.332347
vn 0.611560 0.632710 -0.474990
vn 0.738212 0.673849 0.030732
vn 0.853603 0.519639 0.036439
vn 0.936979 0.346934 0.040773
vn 0.985778 0.162114 0.043611
vn 0.591021 0.073000 -0.803308
vn 0.998596 -0.028077 0.044832
vn 0.594531 0.803705 0.023835
vn 0.992401 -0.114505 0.044862
vn 0.537248 0.159368 0.828181
vn 0.482192 0.849361 0.214576
vn 0.534593 0.756584 0.376446
vn 0.566820 0.636189 0.523392
vn 0.577990 0.492843 0.650380
vn 0.567949 0.331950 0.753136
vn -0.083956 0.780297 0.619709
vn -0.202490 0.666524 0.717429
vn 0.516800 0.078768 0.852443
vn -0.313364 0.528764 0.788781
vn 0.275063 0.939299 0.204962
vn 0.159185 0.919614 0.359050
vn 0.038026 0.865810 0.498886
vn -0.203955 0.978881 -0.012543
vn 0.397687 0.917386 0.014618
vn -0.360118 0.459578 0.811823
usemtl None
s off
f 44/1/1 45/2/1 47/3/1
f 46/4/2 47/5/2 49/6/2
f 48/7/3 49/8/3 51/9/3
f 50/2/4 51/10/4 52/11/4
f 47/12/5 45/13/5 49/14/5
f 54/15/6 55/16/6 44/17/6
f 52/18/7 53/19/7 54/20/7
f 44/21/8 46/22/8 54/23/8
f 46/24/1 44/1/1 47/3/1
f 48/25/2 46/4/2 49/6/2
f 50/26/3 48/7/3 51/9/3
f 51/10/4 53/27/4 52/11/4
f 45/13/9 55/28/9 49/14/9
f 55/28/10 53/29/10 51/30/10
f 49/14/11 55/28/11 51/30/11
f 55/16/6 45/31/6 44/17/6
f 53/19/12 55/32/12 54/20/12
f 46/22/13 48/33/13 54/23/13
f 48/33/14 50/34/14 54/23/14
f 50/34/14 52/35/14 54/23/14
s 1
f 4/36/15 3/37/16 11/38/17
f 5/39/18 4/40/15 12/41/19
f 6/42/20 5/43/18 13/44/21
f 2/45/22 1/46/23 7/47/24
f 11/48/17 10/49/25 17/50/26
f 12/51/19 11/52/17 18/53/27
f 13/54/21 12/55/19 19/56/28
f 8/57/29 7/58/24 14/59/30
f 9/60/31 8/61/29 15/62/32
f 10/63/25 9/64/31 16/65/33
f 16/66/33 15/67/32 22/68/34
f 17/69/26 16/70/33 23/71/35
f 18/72/27 17/73/26 24/74/36
f 19/75/28 18/76/27 25/77/37
f 20/78/38 19/79/28 26/80/39
f 15/81/32 14/82/30 21/83/40
f 27/84/41 26/85/39 33/86/42
f 22/87/34 21/88/40 28/89/43
f 23/90/35 22/91/34 29/92/44
f 24/93/36 23/94/35 30/95/45
f 25/96/37 24/97/36 31/98/46
f 26/99/39 25/100/37 32/101/47
f 32/102/47 31/103/46 39/104/48
f 33/105/42 32/106/47 40/107/49
f 34/108/50 33/109/42 41/110/51
f 29/111/44 28/112/43 36/113/52
f 30/114/45 29/115/44 37/116/53
f 31/117/46 30/118/45 38/119/54
f 43/120/55 2/121/22 9/122/31
f 3/123/16 43/124/55 10/125/25
f 1/126/23 35/127/56 7/128/24
f 7/129/24 35/130/56 14/131/30
f 14/132/30 35/133/56 21/134/40
f 21/135/40 35/136/56 28/137/43
f 28/138/43 35/139/56 36/140/52
f 38/141/54 37/142/53 43/143/55
f 39/144/48 38/145/54 3/146/16
f 40/147/49 39/148/48 4/149/15
f 41/150/51 40/151/49 5/152/18
f 42/153/57 41/154/51 6/155/20
f 36/156/52 35/157/56 1/158/23
f 37/159/53 36/160/52 1/161/23
f 3/37/16 10/162/25 11/38/17
f 4/40/15 11/163/17 12/41/19
f 5/43/18 12/164/19 13/44/21
f 8/165/29 2/45/22 7/47/24
f 18/166/27 11/48/17 17/50/26
f 19/167/28 12/51/19 18/53/27
f 20/168/38 13/54/21 19/56/28
f 15/169/32 8/57/29 14/59/30
f 16/170/33 9/60/31 15/62/32
f 17/171/26 10/63/25 16/65/33
f 23/172/35 16/66/33 22/68/34
f 24/173/36 17/69/26 23/71/35
f 25/174/37 18/72/27 24/74/36
f 26/175/39 19/75/28 25/77/37
f 27/176/41 20/78/38 26/80/39
f 22/177/34 15/81/32 21/83/40
f 34/178/50 27/84/41 33/86/42
f 29/179/44 22/87/34 28/89/43
f 30/180/45 23/90/35 29/92/44
f 31/181/46 24/93/36 30/95/45
f 32/182/47 25/96/37 31/98/46
f 33/183/42 26/99/39 32/101/47
f 40/184/49 32/102/47 39/104/48
f 41/185/51 33/105/42 40/107/49
f 42/186/57 34/108/50 41/110/51
f 37/187/53 29/111/44 36/113/52
f 38/188/54 30/114/45 37/116/53
f 39/189/48 31/117/46 38/119/54
f 2/121/22 8/190/29 9/122/31
f 43/124/55 9/191/31 10/125/25
f 37/142/53 2/192/22 43/143/55
f 38/145/54 43/193/55 3/146/16
f 39/148/48 3/194/16 4/149/15
f 40/151/49 4/195/15 5/152/18
f 41/154/51 5/196/18 6/155/20
f 2/197/22 37/159/53 1/161/23
